<svg data-logo="logo" xmlns="http://www.w3.org/2000/svg" viewBox="0 0 184.54000091552734 41">
        <g style="opacity: 1;" id="logogram" transform="translate(0, 0.5)
    rotate(0 31.5 20)"><path d="M63 29.3506L38.117 5.08907C37.4008 4.39081 36.4402 4 35.44 4C31.9983 4 30.2991 8.18294 32.7659 10.583L59.4712 36.5666C60.7577 37.8183 59.8715 40 58.0765 40H9.65685C8.59599 40 7.57857 39.5786 6.82843 38.8284L1.17157 33.1716C0.421426 32.4214 0 31.404 0 30.3431V10.6484L24.883 34.9109C25.5992 35.6092 26.5598 36 27.5601 36C31.0017 36 32.7009 31.8171 30.2342 29.417L3.52882 3.43345C2.24227 2.18166 3.12849 0 4.92354 0L53.3431 0C54.404 0 55.4214 0.421427 56.1716 1.17157L61.8284 6.82843C62.5786 7.57857 63 8.59599 63 9.65685V29.3506Z" fill="#000000"></path></g>
        <g style="opacity: 1;" id="logotype" transform="translate(69, 7.237500000000001)"><path fill="#000000" d="M6.88 26L6.88 22.64L14.86 13.47L7.08 13.47L7.08 9.20L22.98 9.20L22.98 12.56L15.07 21.73L23.26 21.73L23.26 26L6.88 26ZM35.58 26.52Q30.64 26.52 27.82 24.21Q25.01 21.91 25.01 17.67L25.01 17.67Q25.01 13.50 27.51 11.09Q30.01 8.67 34.73 8.67L34.73 8.67Q37.75 8.67 39.90 9.81Q42.05 10.95 43.15 12.93Q44.26 14.90 44.26 17.39L44.26 17.39L44.26 19.66L30.85 19.66Q31.20 21.06 32.60 21.70Q34 22.32 36.42 22.32L36.42 22.32Q38.06 22.32 39.79 22.04Q41.53 21.77 42.79 21.27L42.79 21.27L42.79 25.34Q41.49 25.86 39.55 26.19Q37.61 26.52 35.58 26.52L35.58 26.52ZM30.85 15.81L38.45 15.81Q38.31 14.45 37.33 13.68Q36.35 12.91 34.63 12.91L34.63 12.91Q32.95 12.91 31.97 13.70Q30.99 14.48 30.85 15.81L30.85 15.81ZM46.71 26L46.71 9.20L52.41 9.20L52.41 11.02Q53.46 9.90 54.83 9.29Q56.19 8.67 57.73 8.67L57.73 8.67Q59.62 8.67 60.76 9.23Q61.90 9.79 62.60 10.91L62.60 10.91Q63.65 9.86 65.15 9.27Q66.66 8.67 68.20 8.67L68.20 8.67Q71.52 8.67 72.92 10.37Q74.32 12.07 74.32 15.25L74.32 15.25L74.32 26L68.44 26L68.44 16.13Q68.44 14.73 67.92 14.10Q67.39 13.47 66.17 13.47L66.17 13.47Q64.59 13.47 63.61 14.59L63.61 14.59Q63.65 15.18 63.65 16.41L63.65 16.41L63.65 26L57.77 26L57.77 15.88Q57.77 14.59 57.31 14.03Q56.86 13.47 55.70 13.47L55.70 13.47Q53.92 13.47 52.62 15.46L52.62 15.46L52.62 26L46.71 26ZM83.11 26.52Q79.96 26.52 78.01 25.00Q76.07 23.48 76.07 20.75L76.07 20.75Q76.07 17.91 77.94 16.39Q79.82 14.87 83.32 14.87L83.32 14.87Q84.68 14.87 86.05 15.17Q87.41 15.46 88.39 15.95L88.39 15.95L88.39 15.60Q88.39 12.91 83.98 12.91L83.98 12.91Q80.90 12.91 78.35 14.10L78.35 14.10L78.35 9.86Q79.47 9.34 81.29 9.01Q83.11 8.67 85.07 8.67L85.07 8.67Q89.76 8.67 92.15 10.55Q94.55 12.42 94.55 15.78L94.55 15.78L94.55 26L88.78 26L88.78 24.57Q87.83 25.48 86.40 26Q84.96 26.52 83.11 26.52L83.11 26.52ZM84.93 22.75Q86.01 22.75 86.96 22.31Q87.90 21.87 88.39 21.17L88.39 21.17L88.39 19.70Q86.89 18.68 84.96 18.68L84.96 18.68Q83.74 18.68 83.07 19.21Q82.41 19.73 82.41 20.75L82.41 20.75Q82.41 21.70 83.05 22.22Q83.70 22.75 84.93 22.75L84.93 22.75ZM100.82 6.96Q99.42 6.96 98.47 6.05Q97.53 5.14 97.53 3.74L97.53 3.74Q97.53 2.37 98.47 1.45Q99.42 0.52 100.82 0.52L100.82 0.52Q102.18 0.52 103.14 1.45Q104.11 2.37 104.11 3.74L104.11 3.74Q104.11 5.10 103.14 6.03Q102.18 6.96 100.82 6.96L100.82 6.96ZM97.74 26L97.74 9.20L103.90 9.20L103.90 26L97.74 26ZM107.26 26L107.26 0.13L113.42 0.13L113.42 26L107.26 26Z"></path></g>
        
      </svg>